# xmcd
#
# Track frame offsets: 
#        150
#        40040
#        61995
#        80378
#        100829
#        122815
#        142205
#        161014
#        184866
#        214353
#        237022
#        255676
#        274709
#        293978
#
# Disc length: 4181 seconds
#
# Revision: 0
# Processed by: cddbd v1.5.1PL0 Copyright (c) Steve Scherf et al.
# Submitted via: ExactAudioCopy v0.95a5
#
DISCID=d010530e
DTITLE=Various Artist - Nu Soul Sessions [CD1]
DYEAR=2005
DGENRE=Nu Soul
TTITLE0=Erykah Badu - Bump It
TTITLE1=Amp Fiddler - You Play Me
TTITLE2=Omar (feat. Angie Stone) - Be Thankful
TTITLE3=Reggie Watts - Wanna Get
TTITLE4=Lizz Fields - I Gotta Go
TTITLE5=Larry Gold and Don Cello (feat. Gerald Levert) - Dance
TTITLE6=Linn - Available
TTITLE7=Rahsaan Patterson - So Hot
TTITLE8=DJ Jazzy Jeff (feat. Jill Scott) - We Live In Philly
TTITLE9=Shaun Escoffery - She's Gone
TTITLE10=Kinny and Horne - Dignity
TTITLE11=Peven Everett - Testin Me
TTITLE12=Soulive (feat. Ekene Nwokoye) - Arruga (Remix)
TTITLE13=Andrew Roachford - The Pressure
EXTD=
EXTT0=
EXTT1=
EXTT2=
EXTT3=
EXTT4=
EXTT5=
EXTT6=
EXTT7=
EXTT8=
EXTT9=
EXTT10=
EXTT11=
EXTT12=
EXTT13=
PLAYORDER=
